# xmcd
#
# Track frame offsets:
#	150
#	14855
#	28070
#	41125
#	56137
#	69800
#	84202
#	97135
#	110543
#	123718
#	135215
#	150133
#	164008
#	177360
#
# Disc length: 2560 seconds
#
# Revision: 0
# Processed by: cddbd v1.5.2PL0 Copyright (c) Steve Scherf et al.
# Submitted via: EasyCDDAExtractor 16.0.6.1
#
DISCID=ba09fe0e
DTITLE=Καζαντζίδης Στέλιος - Τα καλύτερα ζεϊμπέκικα-Σ. Καζαντζίδης
DYEAR=2014
DGENRE=Λαϊκή
TTITLE0=Καζαντζίδης Στέλιος-Μαρινέλλα - Δυό πόρτες έχει η ζωή [Σ. Καζαντζίδης]
TTITLE1=Καζαντζίδης Στέλιος-Μαρινέλλα - Η πρώτη αγάπη σου είμαι εγώ [Γ. Μητσάκ
TTITLE1=ης]
TTITLE2=Καζαντζίδης Στέλιος-Μαρινέλλα - Ηλιοβασιλέματα [Μ. Χιώτης]
TTITLE3=Καζαντζίδης Στέλιος - Απ' τα ψηλά στα χαμηλά [Α. Καλδάρας-Ε.Παπαγιαννο
TTITLE3=πούλου]
TTITLE4=Καζαντζίδης Στέλιος - Κοινωνία ένοχη [Σ. Καζαντζίδης-Χ. Κολοκοτρώνης]
TTITLE5=Καζαντζίδης Στέλιος - Φεύγω με πίκρα στα ξένα [Σ. Καζαντζίδης]
TTITLE6=Καζαντζίδης Στέλιος - Ίσως αύριο [Β. Τσιτσάνης]
TTITLE7=Καζαντζίδης Στέλιος - Θα βρω μουρμούρη μπαγλαμά [Α. Καλδάρας-Ε.Παπαγια
TTITLE7=ννοπούλου]
TTITLE8=Καζαντζίδης Στέλιος - Πυρ, γυνή και θάλασσα [Χ. Κολοκοτρώνης-Σ. Χρυσίν
TTITLE8=ης]
TTITLE9=Καζαντζίδης Στέλιος - Ήπια της πίκρας τα ποτήρια [Σ.Καζαντζίδης/Ε.Ατρα
TTITLE9=ΐδης/Ι.Βασιλόπουλος]
TTITLE10=Καζαντζίδης Στέλιος - Ένοχο χρήμα [Σ. Καζαντζίδης-Ε.Παπαγιαννοπούλου]
TTITLE11=Καζαντζίδης Στέλιος - Το τελευταίο ραντεβού [Γ. Τατασσόπουλος-Ν. Ρούτ
TTITLE11=σος]
TTITLE12=Καζαντζίδης Στέλιος - Ποιος θα με πληροφορήσει [Α. Καλδάρας-Ε.Παπαγια
TTITLE12=ννοπούλου]
TTITLE13=Καζαντζίδης Στέλιος - Το παιδί μου περιμένω [Θ. Δερβενιώτης]
EXTD=
EXTT0=
EXTT1=
EXTT2=
EXTT3=
EXTT4=
EXTT5=
EXTT6=
EXTT7=
EXTT8=
EXTT9=
EXTT10=
EXTT11=
EXTT12=
EXTT13=
PLAYORDER=
